<?xml version="1.0" standalone="no"?>
<!DOCTYPE svg PUBLIC "-//W3C//DTD SVG 20010904//EN" "http://www.w3.org/TR/2001/REC-SVG-20010904/DTD/svg10.dtd">
<svg version="1.0" xmlns="http://www.w3.org/2000/svg" width="980.000000pt" height="980.000000pt" viewBox="0 0 980.000000 980.000000" preserveAspectRatio="xMidYMid meet">
  <metadata>Created by potrace 1.15, written by Peter Selinger 2001-2017</metadata>
  <defs>
    <style>
      .color {
        fill: currentColor;
      }
    </style>
  </defs>
  <g transform="translate(0.000000,980.000000) scale(0.100000,-0.100000)" fill="#000000" stroke="none">
    <path class="color" d="
      M4405 9779 c-735 -86 -1349 -289 -1986 -655 -507 -291 -1014 -738
      -1404 -1239 -97 -125 -280 -402 -370 -560 -92 -161 -229 -447 -303 -630 -176
      -439 -272 -843 -323 -1360 -17 -170 -18 -709 -1 -880 51 -515 173 -994 369
      -1455 621 -1457 1894 -2523 3431 -2875 861 -197 1762 -155 2597 120 388 127
      798 323 1130 540 566 368 1074 869 1443 1421 132 198 349 614 465 891 235 560
      362 1266 343 1918 -26 931 -301 1807 -810 2580 -414 628 -1003 1183 -1656
      1560 -459 265 -1005 464 -1562 569 -204 39 -344 52 -688 66 -330 13 -491 11
      -675 -11z m-2391 -2383 c41 -17 149 -118 551 -517 l320 -318 387 379 c214 208
      415 397 449 419 71 47 113 58 166 41 93 -30 144 -85 164 -178 22 -107 19 -111
      -555 -690 l-291 -292 429 -429 429 -429 -6 -82 c-6 -97 -30 -140 -102 -188
      -56 -37 -109 -47 -164 -32 -57 15 -132 83 -552 498 l-350 346 -292 -290 c-391
      -388 -529 -519 -568 -540 -40 -20 -115 -20 -166 1 -101 42 -164 165 -129 249
      30 71 90 139 463 520 l373 381 -303 305 c-512 516 -537 545 -537 632 0 89 50
      165 135 204 57 27 101 30 149 10z m3953 -1 c55 -23 116 -79 517 -473 l369
      -362 326 323 c387 383 529 513 572 522 38 9 92 -1 140 -25 91 -47 149 -173
      116 -251 -23 -54 -147 -190 -504 -550 l-333 -336 409 -417 c443 -451 449 -458
      439 -550 -12 -100 -91 -178 -197 -195 -61 -10 -106 4 -158 49 -21 17 -213 203
      -426 412 l-388 381 -377 -375 c-207 -206 -404 -394 -436 -419 -58 -43 -61 -44
      -136 -44 -99 0 -145 27 -185 109 -23 48 -27 66 -23 120 4 60 7 68 53 122 28
      32 216 226 419 431 l368 372 -380 388 c-209 214 -397 407 -416 431 -46 56 -58
      100 -45 165 14 76 48 120 120 156 70 35 103 38 156 16z m-782 -3419 c235 -48
      469 -179 656 -365 149 -150 254 -314 323 -509 75 -211 85 -592 20 -788 -33
      -102 -139 -321 -196 -405 -188 -281 -489 -475 -844 -546 -131 -26 -366 -23
      -501 5 -262 56 -470 164 -655 340 -194 185 -321 406 -389 676 -30 118 -37 378
      -15 512 60 352 266 677 549 867 155 105 398 208 533 226 95 14 433 5 519 -13z" />
  </g>
</svg>
