<?xml version="1.0" standalone="no"?>
<!DOCTYPE svg PUBLIC "-//W3C//DTD SVG 20010904//EN" "http://www.w3.org/TR/2001/REC-SVG-20010904/DTD/svg10.dtd">
<svg version="1.0" xmlns="http://www.w3.org/2000/svg" width="980.000000pt" height="980.000000pt" viewBox="0 0 980.000000 980.000000" preserveAspectRatio="xMidYMid meet">
  <metadata>Created by potrace 1.15, written by Peter Selinger 2001-2017</metadata>
  <defs>
    <style>
      .color {
        fill: currentColor;
      }
    </style>
  </defs>
  <g transform="translate(0.000000,980.000000) scale(0.100000,-0.100000)" fill="#000000" stroke="none">
    <path class="color" d="
      M4570 9789 c-919 -62 -1839 -406 -2585 -968 -274 -206 -636 -548
      -837 -791 -1030 -1248 -1388 -2824 -988 -4355 180 -690 509 -1325 988 -1905
      122 -147 473 -498 622 -621 938 -777 2075 -1178 3250 -1145 1113 30 2129 416
      3010 1144 147 122 498 473 621 622 655 790 1020 1663 1131 2700 16 150 16 710
      0 860 -82 764 -290 1407 -661 2035 -383 650 -925 1217 -1568 1639 -885 580
      -1931 855 -2983 785z m-1755 -2308 c40 -19 169 -143 631 -605 554 -553 583
      -584 604 -641 34 -89 38 -196 11 -284 -51 -168 -250 -291 -408 -252 -104 26
      -137 56 -530 484 -206 224 -378 407 -382 407 -4 0 -198 -176 -432 -390 -364
      -335 -434 -395 -497 -427 -61 -31 -84 -37 -136 -37 -87 0 -144 32 -219 120
      -96 112 -124 191 -114 319 11 145 -8 121 591 723 298 299 554 550 570 559 110
      58 221 66 311 24z m4370 4 c58 -26 1198 -1163 1230 -1226 37 -72 51 -167 37
      -250 -7 -39 -21 -87 -31 -108 -34 -65 -101 -142 -139 -158 -80 -34 -216 -15
      -322 44 -27 16 -214 194 -472 451 l-428 426 -412 -410 c-440 -438 -447 -443
      -566 -465 -161 -30 -330 47 -392 177 -47 101 -51 217 -9 330 20 56 48 86 567
      607 351 351 554 547 567 548 11 0 61 13 110 30 104 34 194 35 260 4z m841
      -3317 c-8 -96 -46 -295 -81 -418 -106 -378 -286 -725 -543 -1050 -103 -129
      -384 -407 -512 -506 -499 -386 -1037 -603 -1670 -675 -154 -18 -518 -15 -680
      5 -411 50 -753 154 -1115 340 -195 99 -328 182 -488 302 -154 116 -212 166
      -365 317 -452 446 -752 975 -902 1587 -16 68 -30 137 -30 152 l0 28 3196 0
      3197 0 -7 -82z" />
  </g>
</svg>
