<?xml version="1.0" standalone="no"?>
<!DOCTYPE svg PUBLIC "-//W3C//DTD SVG 20010904//EN" "http://www.w3.org/TR/2001/REC-SVG-20010904/DTD/svg10.dtd">
<svg version="1.0" xmlns="http://www.w3.org/2000/svg" width="980.000000pt" height="980.000000pt" viewBox="0 0 980.000000 980.000000" preserveAspectRatio="xMidYMid meet">
  <metadata>Created by potrace 1.15, written by Peter Selinger 2001-2017</metadata>
  <defs>
    <style>
      .color {
        fill: currentColor;
      }
    </style>
  </defs>
  <g transform="translate(0.000000,980.000000) scale(0.100000,-0.100000)" fill="#000000" stroke="none">
    <path class="color" d="
      M4645 9794 c-397 -24 -723 -79 -1070 -179 -693 -201 -1292 -521
      -1853 -992 -160 -134 -464 -440 -597 -601 -630 -763 -1008 -1684 -1107 -2697
      -16 -169 -16 -692 0 -855 56 -549 182 -1041 391 -1528 505 -1177 1467 -2113
      2663 -2591 468 -187 1010 -317 1424 -341 349 -20 873 -8 1083 25 1112 176
      2036 639 2796 1400 753 754 1216 1683 1390 2785 48 310 46 1065 -5 1379 -89
      545 -252 1048 -496 1531 -243 481 -504 842 -888 1226 -262 262 -476 437 -768
      628 -670 438 -1415 705 -2208 791 -137 15 -621 27 -755 19z m-1210 -2639 c79
      -20 191 -76 254 -125 56 -44 117 -127 179 -242 l42 -77 0 -507 0 -507 -57
      -106 c-79 -145 -162 -228 -294 -295 -92 -46 -99 -48 -215 -57 -152 -11 -244 0
      -328 39 -160 75 -259 170 -333 319 l-48 96 0 511 0 511 35 74 c85 183 250 324
      440 376 67 18 235 13 325 -10z m3248 10 c121 -25 210 -77 313 -179 74 -75 99
      -107 135 -180 l44 -89 0 -506 c0 -473 -1 -509 -19 -556 -59 -156 -229 -330
      -375 -385 -119 -46 -323 -51 -448 -12 -159 50 -308 186 -390 359 -31 64 -35
      85 -43 195 -13 173 -12 731 1 824 13 96 38 164 90 245 52 82 99 131 173 181
      148 102 343 141 519 103z m427 -3294 c183 -93 314 -231 372 -392 20 -56 23
      -83 23 -219 0 -136 -3 -163 -23 -219 -58 -160 -190 -300 -369 -390 l-62 -31
      -2146 0 -2145 0 -78 39 c-154 77 -256 177 -323 316 -119 247 -75 533 111 728
      73 77 142 124 242 165 54 21 86 26 218 33 85 4 1046 6 2135 5 l1980 -2 65 -33z" />
  </g>
</svg>
