<?xml version="1.0" standalone="no"?>
<!DOCTYPE svg PUBLIC "-//W3C//DTD SVG 20010904//EN" "http://www.w3.org/TR/2001/REC-SVG-20010904/DTD/svg10.dtd">
<svg version="1.0" xmlns="http://www.w3.org/2000/svg" width="980.000000pt" height="980.000000pt" viewBox="0 0 980.000000 980.000000" preserveAspectRatio="xMidYMid meet">
  <metadata>Created by potrace 1.15, written by Peter Selinger 2001-2017</metadata>
  <defs>
    <style>
      .color {
        fill: currentColor;
      }
    </style>
  </defs>
  <g transform="translate(0.000000,980.000000) scale(0.100000,-0.100000)" fill="#000000" stroke="none">
    <path class="color" d="
      M4560 9789 c-1035 -75 -1998 -463 -2800 -1128 -150 -123 -501 -475
      -622 -621 -674 -817 -1059 -1781 -1127 -2825 -78 -1179 288 -2380 1006 -3302
      183 -235 434 -504 643 -687 1328 -1166 3158 -1531 4825 -962 895 305 1700 879
      2281 1627 735 946 1100 2126 1024 3314 -70 1094 -491 2109 -1216 2935 -112
      128 -386 398 -509 501 -763 642 -1665 1026 -2665 1134 -174 19 -664 27 -840
      14z m-1366 -2454 c165 -35 330 -160 409 -311 121 -233 86 -504 -92 -707 -52
      -59 -173 -133 -264 -163 -101 -32 -236 -37 -336 -10 -218 57 -400 246 -446
      462 -92 435 294 821 729 729z m3688 -4 c387 -99 578 -518 401 -873 -49 -97
      -162 -210 -259 -261 -99 -51 -180 -70 -294 -70 -254 2 -486 167 -570 406 -31
      87 -39 267 -15 357 27 105 81 196 165 280 154 154 367 213 572 161z m-1612
      -3066 c891 -111 1681 -597 2176 -1341 41 -61 74 -115 74 -120 -1 -9 -779 -479
      -784 -472 -2 1 -23 35 -48 73 -70 110 -197 262 -305 365 -324 312 -720 506
      -1175 577 -155 24 -461 24 -617 0 -479 -75 -906 -295 -1233 -636 -117 -121
      -187 -212 -295 -380 -3 -4 -753 447 -772 465 -12 11 -3 30 61 126 335 503 830
      910 1377 1133 322 131 621 200 996 229 97 8 422 -4 545 -19z" />
  </g>
</svg>
