<?xml version="1.0" standalone="no"?>
<!DOCTYPE svg PUBLIC "-//W3C//DTD SVG 20010904//EN" "http://www.w3.org/TR/2001/REC-SVG-20010904/DTD/svg10.dtd">
<svg version="1.0" xmlns="http://www.w3.org/2000/svg" width="980.000000pt" height="980.000000pt" viewBox="0 0 980.000000 980.000000" preserveAspectRatio="xMidYMid meet">
  <metadata>Created by potrace 1.15, written by Peter Selinger 2001-2017</metadata>
  <defs>
    <style>
      .color {
        fill: currentColor;
      }
    </style>
  </defs>
  <g transform="translate(0.000000,980.000000) scale(0.100000,-0.100000)" fill="#000000" stroke="none">
    <path class="color" d="
      M4615 9793 c-434 -22 -941 -124 -1343 -269 -703 -254 -1319 -641
      -1827 -1149 -355 -354 -612 -700 -860 -1154 -486 -894 -675 -1920 -544 -2956
      173 -1369 962 -2645 2115 -3422 689 -464 1413 -728 2244 -820 222 -24 763 -24
      990 0 714 77 1329 276 1939 627 1330 766 2241 2121 2430 3615 46 362 52 806
      16 1145 -103 976 -486 1875 -1126 2645 -115 138 -450 472 -589 587 -601 496
      -1273 841 -1985 1017 -447 111 -973 159 -1460 134z m2203 -2439 c219 -45 405
      -201 526 -441 135 -269 137 -647 6 -921 -51 -106 -88 -161 -169 -246 -87 -91
      -187 -156 -297 -192 -78 -26 -103 -29 -209 -29 -97 0 -135 5 -195 23 -282 87
      -498 347 -572 687 -8 37 -12 121 -12 220 1 139 5 173 28 260 119 453 495 721
      894 639z m-3603 -30 c196 -50 363 -201 476 -429 161 -324 135 -760 -62 -1055
      -101 -151 -232 -257 -386 -311 -71 -25 -235 -36 -316 -20 -225 42 -431 216
      -546 463 -150 320 -122 746 66 1024 193 283 477 404 768 328z m-875 -3491
      c146 -168 401 -381 621 -516 277 -171 675 -341 973 -417 477 -121 1155 -133
      1680 -29 502 99 1064 358 1457 671 100 78 290 261 357 341 l32 37 48 -24 c26
      -13 66 -44 88 -68 59 -64 79 -124 79 -233 0 -77 -5 -102 -32 -173 -126 -329
      -419 -656 -797 -887 -348 -213 -749 -358 -1201 -434 -411 -69 -966 -80 -1370
      -25 -383 51 -757 154 -1058 290 -518 234 -923 592 -1097 968 -85 184 -96 275
      -50 399 31 83 73 135 133 163 29 13 54 24 57 24 3 0 39 -39 80 -87z" />
  </g>
</svg>
