<?xml version="1.0" standalone="no"?>
<!DOCTYPE svg PUBLIC "-//W3C//DTD SVG 20010904//EN" "http://www.w3.org/TR/2001/REC-SVG-20010904/DTD/svg10.dtd">
<svg version="1.0" xmlns="http://www.w3.org/2000/svg" width="874.000000pt" height="980.000000pt" viewBox="0 0 874.000000 980.000000" preserveAspectRatio="xMidYMid meet">
  <metadata>Created by potrace 1.15, written by Peter Selinger 2001-2017</metadata>
  <defs>
    <style>
      .color {
        fill: currentColor;
      }
    </style>
  </defs>
  <g transform="translate(0.000000,980.000000) scale(0.100000,-0.100000)" fill="#000000" stroke="none">
    <path class="color" d="
      M3179 9785 c-147 -29 -276 -102 -387 -219 -123 -130 -189 -281 -199
      -457 l-6 -96 -211 -6 c-244 -6 -315 -20 -449 -89 -115 -59 -246 -190 -305
      -305 -62 -120 -83 -211 -83 -363 0 -227 61 -380 211 -531 91 -92 170 -143 293
      -188 l72 -26 1310 -3 c1186 -2 1317 -1 1385 14 249 54 456 243 537 489 38 115
      44 315 14 436 -34 137 -92 240 -191 340 -92 93 -171 144 -293 187 -68 24 -86
      26 -309 30 l-238 4 0 64 c0 195 -83 388 -228 525 -112 108 -216 162 -364 193
      -98 20 -459 21 -559 1z" />
    <path class="color" d="
      M249 8986 c-98 -26 -173 -89 -221 -186 l-23 -45 0 -4000 0 -4000 33
      -67 c37 -76 82 -120 162 -157 l55 -26 2017 -3 c1110 -1 2018 0 2018 3 0 3 -24
      56 -54 118 -68 143 -115 261 -162 415 l-38 122 -1688 0 -1688 0 0 3590 0 3590
      242 2 242 3 13 89 c25 177 92 343 198 490 l54 76 -557 -1 c-408 0 -569 -4
      -603 -13z" />
    <path class="color" d="
      M5535 8965 c122 -160 192 -322 225 -519 l17 -101 241 -3 242 -2 0
      -1820 c0 -1001 3 -1820 8 -1820 4 0 68 9 142 20 75 12 219 24 323 27 l187 6
      -2 1996 -3 1996 -33 67 c-37 76 -82 120 -162 157 l-55 26 -579 3 -579 3 28
      -36z" />
    <path class="color" d="
      M4724 5719 c-111 -26 -93 -6 -906 -1014 -418 -517 -767 -951 -777
      -964 l-18 -24 -252 284 c-139 156 -271 299 -294 316 -64 49 -125 66 -221 61
      -123 -7 -204 -57 -262 -160 -26 -47 -29 -63 -29 -138 0 -68 5 -94 22 -130 13
      -26 175 -216 379 -445 449 -504 467 -522 532 -553 103 -47 223 -38 320 25 31
      20 293 339 940 1141 493 612 911 1136 927 1165 27 47 30 61 30 137 0 72 -4 92
      -27 136 -31 60 -94 119 -154 145 -52 23 -153 32 -210 18z" />
    <path class="color" d="
      M6320 4434 c-14 -2 -65 -9 -115 -15 -495 -62 -1018 -346 -1356 -737
      -277 -320 -446 -673 -521 -1089 -20 -111 -23 -160 -22 -373 0 -261 9 -343 59
      -540 177 -700 688 -1274 1364 -1534 823 -317 1778 -101 2390 540 572 599 764
      1446 507 2228 -232 704 -814 1257 -1526 1450 -187 50 -320 68 -545 71 -115 2
      -221 2 -235 -1z m376 -345 c861 -84 1553 -743 1678 -1600 21 -139 21 -399 0
      -538 -53 -365 -205 -690 -456 -978 -255 -293 -648 -518 -1035 -593 -324 -62
      -642 -43 -953 59 -622 205 -1102 734 -1244 1372 -142 642 52 1295 520 1749
      171 165 300 256 509 356 306 147 642 206 981 173z" />
    <path class="color" d="
      M6329 3455 c-14 -8 -35 -27 -45 -42 -18 -26 -19 -56 -22 -480 l-3
      -453 -420 0 c-464 0 -472 -1 -509 -62 -18 -30 -20 -50 -20 -205 l0 -172 31
      -35 c17 -20 47 -40 67 -46 22 -6 199 -10 444 -10 l407 0 3 -453 c3 -503 1
      -485 71 -527 28 -18 51 -20 197 -20 182 0 214 8 254 63 20 28 21 41 24 483 l3
      454 407 0 c237 0 422 4 443 10 19 5 48 24 65 41 l29 30 3 177 c2 160 1 180
      -17 208 -39 63 -44 64 -510 64 l-420 0 -3 448 c-3 417 -4 449 -22 478 -36 59
      -55 64 -253 64 -134 -1 -184 -4 -204 -15z" />
  </g>
</svg>
