<?xml version="1.0" standalone="no"?>
<!DOCTYPE svg PUBLIC "-//W3C//DTD SVG 20010904//EN" "http://www.w3.org/TR/2001/REC-SVG-20010904/DTD/svg10.dtd">
<svg version="1.0" xmlns="http://www.w3.org/2000/svg" width="981.000000pt" height="980.000000pt" viewBox="0 0 981.000000 980.000000" preserveAspectRatio="xMidYMid meet">
  <metadata>Created by potrace 1.15, written by Peter Selinger 2001-2017</metadata>
  <defs>
    <style>
      .color {
        fill: currentColor;
      }
    </style>
  </defs>
  <g transform="translate(0.000000,980.000000) scale(0.100000,-0.100000)" fill="#000000" stroke="none">
    <path class="color" d="
      M4304 9775 c-1107 -101 -2127 -579 -2919 -1370 -1087 -1085 -1575
      -2623 -1315 -4140 252 -1469 1193 -2738 2530 -3415 952 -481 2022 -623 3085
      -409 180 36 237 62 304 134 177 195 68 507 -194 556 -50 9 -77 6 -234 -25
      -336 -67 -467 -80 -826 -80 -343 -1 -468 9 -745 60 -1545 283 -2802 1462
      -3190 2991 -49 192 -86 409 -106 623 -22 226 -14 671 15 885 120 877 495 1659
      1098 2285 534 555 1212 948 1948 1129 761 187 1544 152 2290 -102 425 -145
      844 -377 1215 -673 162 -130 472 -436 598 -592 447 -552 739 -1190 857 -1868
      42 -246 57 -420 57 -694 0 -338 -28 -592 -99 -910 -33 -147 -29 -212 17 -299
      39 -73 83 -114 160 -150 46 -22 69 -26 140 -26 73 0 93 4 142 28 71 35 140
      110 167 182 11 29 36 131 55 227 212 1040 73 2102 -400 3047 -244 488 -514
      862 -898 1246 -803 800 -1836 1275 -2970 1365 -172 13 -607 11 -782 -5z"  />
    <path class="color" d="
      M3092 6704 c-186 -50 -328 -198 -367 -381 -21 -97 -21 -788 -1 -884
      38 -179 172 -326 344 -379 80 -25 215 -27 293 -4 165 49 300 188 345 359 11
      38 14 151 14 466 0 450 -1 463 -57 574 -35 68 -132 166 -202 204 -112 59 -253
      77 -369 45z" />
    <path class="color" d="
      M6133 6706 c-159 -39 -289 -156 -354 -321 -23 -59 -24 -65 -27 -477
      -3 -356 -1 -427 13 -480 22 -88 58 -158 113 -219 157 -175 404 -219 617 -112
      68 35 166 132 204 202 58 110 61 135 61 581 0 364 -2 412 -19 472 -46 169
      -188 309 -356 353 -70 18 -179 18 -252 1z" />
    <path class="color" d="
      M6778 4026 c-76 -27 -126 -66 -200 -158 -105 -129 -303 -320 -427
      -412 -308 -229 -641 -371 -1026 -437 -153 -26 -467 -36 -626 -20 -614 63
      -1178 363 -1573 834 -127 152 -186 187 -317 187 -135 0 -241 -66 -301 -187
      -27 -55 -32 -77 -32 -137 -1 -105 22 -157 118 -277 102 -127 338 -359 466
      -458 650 -505 1445 -725 2255 -625 628 77 1198 341 1679 778 172 156 371 392
      402 477 22 61 22 162 -1 229 -25 76 -118 170 -198 199 -66 24 -162 27 -219 7z" />
    <path class="color" d="
      M7988 3357 c-66 -28 -103 -56 -146 -113 -68 -87 -66 -72 -70 -671
      l-3 -542 -547 -3 c-538 -3 -548 -3 -594 -25 -121 -56 -200 -177 -200 -307 -1
      -177 117 -311 294 -337 35 -5 285 -9 556 -9 l492 0 0 -487 c1 -269 5 -518 9
      -555 24 -181 158 -301 337 -300 130 0 251 79 307 200 22 46 22 56 25 600 l3
      552 539 0 c519 0 541 1 594 21 73 27 148 96 183 167 24 50 28 69 28 147 0 73
      -4 99 -23 136 -34 70 -84 122 -154 160 l-63 34 -552 3 -552 3 -3 547 -3 547
      -33 67 c-58 118 -152 179 -287 185 -67 3 -89 0 -137 -20z" />
  </g>
</svg>
