<?xml version="1.0" standalone="no"?>
<!DOCTYPE svg PUBLIC "-//W3C//DTD SVG 20010904//EN" "http://www.w3.org/TR/2001/REC-SVG-20010904/DTD/svg10.dtd">
<svg version="1.0" xmlns="http://www.w3.org/2000/svg" width="844.000000pt" height="980.000000pt" viewBox="0 0 844.000000 980.000000" preserveAspectRatio="xMidYMid meet">
  <metadata>Created by potrace 1.15, written by Peter Selinger 2001-2017</metadata>
  <defs>
    <style>
      .color {
        fill: currentColor;
      }
    </style>
  </defs>
  
  <g transform="translate(0.000000,980.000000) scale(0.100000,-0.100000)" fill="#000000" stroke="none">
    <path class="color" d=
      "M268 9786 c-130 -35 -248 -190 -256 -337 -4 -57 0 -75 22 -119 71
      -141 160 -236 1293 -1370 l993 -995 0 -1365 -1 -1365 -992 -1000 c-1193 -1203
      -1280 -1296 -1308 -1398 -16 -60 -6 -155 24 -221 30 -65 104 -147 163 -182 46
      -27 144 -43 264 -44 l75 0 815 813 c1187 1185 1653 1638 1668 1622 18 -18 23
      -269 31 -1715 6 -932 14 -1622 20 -1690 17 -182 35 -241 92 -304 55 -61 113
      -90 210 -105 166 -27 223 -9 357 117 l82 77 7 2843 6 2844 390 -389 389 -388
      -6 -105 c-8 -174 -70 -437 -271 -1158 -59 -211 -105 -386 -102 -388 3 -3 382
      -22 475 -24 9 0 12 -173 13 -827 0 -456 4 -1136 9 -1513 10 -840 16 -890 106
      -990 43 -47 77 -67 149 -87 77 -20 215 -28 258 -14 29 10 104 69 235 186 1 1
      7 333 13 737 9 717 14 818 34 820 5 0 23 -21 38 -48 68 -117 135 -153 322
      -174 146 -16 930 -23 1255 -11 392 14 460 30 547 124 70 76 86 118 91 236 6
      153 -9 189 -145 338 l-48 53 -655 10 c-360 5 -656 10 -657 10 -2 0 -3 258 -3
      574 l0 573 111 6 c62 3 115 9 120 14 4 4 -80 357 -186 783 l-194 775 0 510 c0
      481 10 900 22 912 15 14 249 -224 528 -537 68 -76 99 -102 153 -130 61 -31 77
      -35 145 -34 105 0 143 20 287 152 312 285 937 918 1067 1081 108 136 128 215
      87 337 -59 172 -180 256 -367 255 -156 0 -167 -8 -596 -428 -158 -156 -324
      -315 -368 -353 l-80 -71 -41 33 c-45 35 -268 249 -603 578 -335 329 -299 314
      -745 316 -188 0 -348 5 -365 11 -44 14 -37 34 21 53 73 25 129 63 218 149 89
      86 153 165 186 231 158 311 62 708 -227 939 -140 111 -290 157 -492 149 -199
      -8 -350 -75 -497 -222 -91 -92 -150 -184 -191 -301 -25 -74 -27 -91 -27 -235
      0 -144 2 -161 27 -235 79 -225 229 -378 478 -485 l103 -45 -1064 -3 -1063 -2
      -1083 1080 -1083 1080 -118 -1 c-65 0 -139 -6 -165 -13z m4339 -3189 c-7 -290
      -12 -357 -28 -357 -29 0 -638 614 -623 629 11 12 141 18 398 19 l259 2 -6
      -293z" />
    <path class="color" d="
      M2867 9534 c-131 -31 -286 -134 -380 -249 -190 -234 -223 -625 -75
    -873 45 -74 177 -205 267 -264 40 -26 110 -60 155 -75 73 -24 95 -27 231 -27
    169 -1 232 12 350 70 186 91 335 276 391 484 25 91 25 291 1 380 -25 90 -88
    213 -148 288 -59 74 -187 178 -266 217 -121 59 -384 84 -526 49z" />
  </g>
</svg>
