<?xml version="1.0" standalone="no"?>
<!DOCTYPE svg PUBLIC "-//W3C//DTD SVG 20010904//EN" "http://www.w3.org/TR/2001/REC-SVG-20010904/DTD/svg10.dtd">
<svg version="1.0" xmlns="http://www.w3.org/2000/svg" width="826.000000pt" height="980.000000pt" viewBox="0 0 826.000000 980.000000" preserveAspectRatio="xMidYMid meet">
  <metadata>Created by potrace 1.15, written by Peter Selinger 2001-2017</metadata>
  <defs>
    <style>
      .color {
        fill: currentColor;
      }
    </style>
  </defs>
  <g transform="translate(0.000000,980.000000) scale(0.100000,-0.100000)" fill="#000000" stroke="none">
    <path class="color" d="
      M3165 9788 c-27 -5 -86 -27 -131 -48 -111 -54 -200 -142 -253 -253
      -52 -107 -61 -165 -61 -379 l0 -178 -330 0 -330 0 0 -755 0 -755 2060 0 2060
      0 0 755 0 755 -319 0 -319 0 -5 203 c-5 219 -12 258 -70 372 -36 73 -150 189
      -224 228 -28 15 -86 36 -129 47 -74 19 -111 20 -988 19 -521 -1 -932 -5 -961
      -11z m1080 -583 c401 -71 621 -522 439 -902 -88 -185 -277 -305 -506 -320
      -318 -20 -598 197 -654 507 -61 338 170 662 514 720 71 12 119 11 207 -5z" />
    <path class="color" d="
      M263 8431 c-100 -34 -176 -103 -222 -201 l-26 -55 -3 -3930 c-2
      -4340 -8 -3981 61 -4081 45 -66 119 -120 196 -144 62 -20 102 -20 3861 -20
      3773 0 3798 0 3861 20 35 11 86 36 112 56 60 43 122 139 137 207 8 38 10 1128
      8 3972 l-3 3920 -27 57 c-37 79 -98 142 -177 181 l-66 32 -552 3 -553 3 -2
      -828 -3 -828 -2745 0 -2745 0 -3 828 -2 827 -528 0 c-481 -1 -532 -2 -579 -19z
      m6328 -2629 c83 -55 497 -405 508 -428 10 -24 9 -33 -11 -70 -13 -23 -759
      -943 -1658 -2043 -899 -1101 -1636 -2010 -1638 -2021 -4 -22 -26 -29 -64 -19
      -15 4 -548 434 -1185 956 -637 522 -1175 962 -1196 978 -46 36 -67 73 -67 117
      0 42 -4 36 233 326 221 271 240 286 307 262 25 -10 371 -291 936 -758 l897
      -744 22 24 c23 23 2724 3331 2760 3380 43 57 107 74 156 40z" />
  </g>
</svg>
