<?xml version="1.0" standalone="no"?>
<!DOCTYPE svg PUBLIC "-//W3C//DTD SVG 20010904//EN" "http://www.w3.org/TR/2001/REC-SVG-20010904/DTD/svg10.dtd">
<svg version="1.0" xmlns="http://www.w3.org/2000/svg" width="918.000000pt" height="980.000000pt" viewBox="0 0 918.000000 980.000000" preserveAspectRatio="xMidYMid meet">
  <metadata>Created by potrace 1.15, written by Peter Selinger 2001-2017</metadata>
  <defs>
    <style>
      .color {
        fill: currentColor;
      }
    </style>
  </defs>
  <g transform="translate(0.000000,980.000000) scale(0.100000,-0.100000)" fill="#000000" stroke="none">
    <path class="color" d="
      M505 9789 c-122 -14 -252 -83 -338 -179 -53 -59 -128 -204 -149 -290
      -7 -31 -13 -108 -13 -175 1 -201 54 -333 191 -472 113 -115 179 -146 325 -151
      154 -6 225 18 337 112 24 20 47 36 52 36 4 0 45 -25 90 -55 113 -75 192 -99
      313 -93 106 5 178 30 283 99 75 48 54 51 178 -25 129 -78 260 -104 371 -71
      190 55 330 191 391 379 38 118 45 307 15 426 -33 134 -82 223 -170 311 -112
      111 -246 167 -376 157 -73 -6 -192 -54 -259 -106 -27 -20 -55 -41 -62 -46 -9
      -7 -29 1 -66 24 -156 99 -238 126 -358 117 -96 -7 -174 -36 -251 -95 -33 -26
      -66 -51 -73 -56 -8 -5 -38 11 -87 46 -129 92 -221 121 -344 107z" />
    <path class="color" d="
      M4605 8560 c-647 -48 -1261 -237 -1845 -568 -914 -518 -1591 -1353
      -1930 -2382 -257 -778 -285 -1555 -86 -2366 150 -608 483 -1260 875 -1714 421
      -486 880 -842 1425 -1106 1367 -660 2977 -542 4256 312 294 196 630 505 919
      844 292 342 568 843 733 1330 369 1089 286 2267 -232 3300 -243 484 -474 787
      -934 1227 -423 405 -934 706 -1541 908 -308 103 -594 165 -916 200 -176 19
      -562 27 -724 15z m-965 -2456 c135 -10 244 -60 425 -196 l95 -72 -62 -64 c-52
      -53 -161 -148 -229 -199 -12 -10 -26 -5 -75 29 -168 116 -306 134 -546 73 -38
      -10 -70 26 -149 168 -34 61 -68 122 -76 135 -12 20 -11 23 19 42 18 11 67 35
      108 52 104 45 214 52 490 32z m2685 -10 c80 -16 187 -64 276 -125 58 -39 200
      -163 207 -179 2 -7 -255 -219 -294 -243 -7 -4 -51 20 -100 53 -185 126 -375
      141 -571 45 -83 -41 -152 -110 -201 -202 -43 -82 -51 -87 -121 -80 -60 7 -232
      57 -283 83 -40 21 -36 54 17 152 159 296 411 486 680 511 105 10 302 2 390
      -15z m-2827 -691 c53 -30 111 -115 144 -211 20 -58 23 -86 23 -212 0 -126 -3
      -155 -24 -218 -51 -156 -140 -247 -241 -245 -25 0 -60 8 -76 16 -172 90 -235
      509 -113 748 23 46 83 115 113 131 59 32 107 29 174 -9z m2765 13 c44 -18 83
      -66 123 -151 43 -91 58 -188 51 -345 -6 -175 -43 -268 -140 -357 -79 -73 -162
      -68 -244 13 -112 112 -160 341 -117 552 28 138 100 254 178 288 40 17 108 18
      149 0z m-1598 -2328 c336 -51 715 -320 890 -633 80 -142 152 -389 157 -535 l3
      -85 -161 -3 c-88 -1 -178 1 -200 6 l-39 8 -17 84 c-41 196 -93 313 -197 443
      -117 145 -277 251 -440 293 -52 13 -101 15 -250 12 -199 -4 -218 -9 -379 -79
      -46 -20 -55 -22 -63 -9 -5 8 -47 75 -94 149 -101 159 -105 178 -42 218 55 35
      195 88 301 113 163 39 353 45 531 18z" />
    <path class="color" d="
      M931 8061 c-60 -23 -68 -28 -129 -85 -175 -163 -128 -472 88 -581
      183 -93 408 -10 498 183 23 48 27 71 27 142 0 72 -5 94 -28 146 -34 74 -102
      143 -177 180 -75 38 -199 44 -279 15z" />
  </g>
</svg>
